<?xml version="1.0" encoding="UTF-8"?>
<svg id="Camada_1" data-name="Camada 1" xmlns="http://www.w3.org/2000/svg" viewBox="0 0 1920 1080">
  <defs>
    <style>
      .cls-1 {
        fill: #1d1d1b;
      }
    </style>
  </defs>
  <path class="cls-1" d="M1584.25,625.51V255.02c52.53,2.85,109.03-3.83,161.1.02,196.48,14.53,240.19,278.36,64.04,353.44-69.25,29.51-151.55,12.48-225.14,17.03ZM1745.37,314.84c-29.7-3.34-65.19,2.48-95.52,0v250.86h91.66c7.06,0,27.61-6.38,35.08-9.3,114.15-44.69,92.23-227.67-31.22-241.56Z"/>
  <polygon class="cls-1" points="275.94 255.02 275.94 311.94 273.05 314.84 65.61 314.84 65.61 415.18 252.78 415.18 252.78 472.1 249.89 475 65.61 475 65.61 625.51 0 625.51 0 255.02 275.94 255.02"/>
  <polygon class="cls-1" points="1250.42 255.02 1250.42 565.69 1445.31 565.69 1445.31 625.51 1186.74 625.51 1186.74 255.02 1250.42 255.02"/>
  <path class="cls-1" d="M843.26,440.26c-71.37-.07-142.83.05-214.2,0l16.71-63.77,214.67-.1,15.62-61.56h-214.19l15.44-63.68h216.12l-15.44,61.75h211.3l2.57,4.39-15.19,59.2-214.82.34-2.78,3.01c-4.94,20.22-10.29,40.38-15.8,60.42,71.37.07,142.83-.06,214.2,0,1.56,1.55-8.63,37.61-10.2,42.86-1.86,6.22-3.54,19.62-10.06,20.81-70.43-.28-140.9.38-211.3,0-5.38,20.48-11.43,40.92-15.44,61.75h214.19l-18.33,63.68h-213.23l15.44-63.68h-214.19c6.48-16.22,8.15-44.3,15.26-59.03.85-1.76.97-3.8,3.33-4.39,66.82-.1,133.68-.75,200.5-.34,4.34.03,8.37,1.99,12.46,2.01,5.58-21.24,11.54-42.5,17.37-63.68Z"/>
  <rect class="cls-1" x="412.95" y="255.02" width="65.61" height="370.49"/>
  <path class="cls-1" d="M270.15,764.44c5.89.38,12.88-1.85,17.52,2.74l46.16,59.01v-61.75h17.37v92.62l-15.04-.42-50.57-65.19v65.61h-15.44v-92.62Z"/>
  <path class="cls-1" d="M1255.24,764.44c28.44,4.72,30.01,50.12.93,56.96l23.18,35.65c-5.31-.79-14.87,1.69-19.28-.96-4.38-2.64-16.15-25.84-21.25-30.86l-21.22-.97v32.8h-17.37v-92.62c16.68,1.95,39.09-2.64,55,0ZM1217.61,808.83h31.84c8.85,0,15.34-18.46,6.7-26-.97-.84-9.98-4.88-10.56-4.88h-27.98v30.87Z"/>
  <path class="cls-1" d="M465.05,857.07v-92.62h49.21c.89,0,9.99,4.41,11.94,5.43,32.26,16.93,30.86,65.9-1.94,81.75-2.1,1.01-14.64,5.44-15.78,5.44h-43.42ZM482.41,841.63c23.79,3.01,50.44-2.99,50.32-31.85-.12-27.55-27.7-34.56-50.32-31.83v63.68Z"/>
  <path class="cls-1" d="M675.38,764.44v62.71c0,7.99,14.31,16.35,22.16,16.41,9.32.07,24.15-8.32,24.15-18.34v-60.78h17.38c-1.74,22.46,5.56,67.03-11.78,83.75-15.16,14.62-49.11,13.96-61.57-3.66-1.64-2.32-7.71-15.81-7.71-17.38v-62.71h17.37Z"/>
  <path class="cls-1" d="M1568.5,762.84l40.82,94.22-17.05-.31-11.23-22.53c-8.45.76-37.08-2.94-42.17,1.59-3.46,3.08-7.96,20.37-8.92,20.99l-17.09.25,39.53-92.63,16.11-1.59ZM1576.53,820.4c-5.37-12.13-8.75-26.68-17.35-36.66l-13.53,36.66h30.87Z"/>
  <path class="cls-1" d="M845.2,845.45l8.91-13.33c8.99,9.73,44.87,19.65,46.63.52,1.68-18.29-47.56-11.84-51.57-36.46-4.82-29.61,22.93-38.64,47.26-31.84,13.04,3.65,22.8,9.57,9.35,21.17-8.49-6.11-39.63-15.63-41.33,1.2-2.04,20.09,46.89,11.1,51.68,37.04,6.44,34.92-31.53,39.71-56.5,29.5-5.3-2.16-8.82-6.64-14.42-7.8Z"/>
  <polygon class="cls-1" points="1732.83 764.44 1732.83 841.63 1781.07 841.63 1781.07 857.07 1715.46 857.07 1715.46 764.44 1732.83 764.44"/>
  <polygon class="cls-1" points="1094.11 764.44 1094.11 777.95 1066.13 777.95 1063.24 780.85 1063.24 857.07 1047.8 857.07 1047.8 780.85 1044.91 777.95 1016.93 777.95 1016.93 764.44 1094.11 764.44"/>
  <rect class="cls-1" x="137.01" y="764.44" width="17.37" height="92.62"/>
  <rect class="cls-1" x="1389.35" y="764.44" width="15.44" height="92.62"/>
</svg>