<?xml version="1.0" encoding="UTF-8"?>
<svg id="Camada_1" data-name="Camada 1" xmlns="http://www.w3.org/2000/svg" viewBox="0 0 1920 1080">
  <defs>
    <style>
      .cls-1 {
        fill: #1d1d1b;
      }
    </style>
  </defs>
  <path class="cls-1" d="M1006.77,365.17c15.6-58.53,31.68-117.02,46.62-175.72H454.49L501.2,14.71c.55-.48,5.82-2.78,6.19-2.78h592.62l-44.83,175.72h596.21l2.39,4.08-47.5,173.52c-199.82-.45-399.7.31-599.51-.08-15.6,58.53-30.96,117.21-46.62,175.72,199.6.05,399.3-.04,598.9,0l-47.52,175.72h-598c13.5-59.09,30.96-117.23,46.62-175.72-198.14-.05-396.34-.04-594.5.09l-5.89-2.72,49.26-174.64c194.79-.06,389.59-.72,584.39-.33,4.89,0,9.14,1.87,13.37,1.88Z"/>
  <polygon class="cls-1" points="911.74 716.62 866.91 892.35 1465.81 892.35 1419.19 1068.07 821.18 1068.07 819.18 1064.37 865.12 892.35 266.22 892.35 313.73 716.62 911.74 716.62"/>
</svg>