<?xml version="1.0" encoding="UTF-8"?>
<svg id="Camada_1" data-name="Camada 1" xmlns="http://www.w3.org/2000/svg" viewBox="0 0 1920 1080">
  <defs>
    <style>
      .cls-1 {
        fill: #1d1d1b;
      }
    </style>
  </defs>
  <path class="cls-1" d="M980.27,464.52c6.64-25.1,13.84-50.13,19.56-75.48h-257.13l21.66-75.48h256.44l-19.56,75.48h257.13l-21.83,75.32c-85.42.34-170.87.11-256.27.17-6.64,25.1-13.58,50.2-19.56,75.48h257.13l-19.46,72.09-2.37,3.22c-85.41.35-170.87.12-256.27.17-6.65,25.1-13.3,50.27-19.56,75.48h257.13l-21.66,75.48h-254.34c-.17,0-2.73-1.99-1.5-2.86l18.97-72.62h-255.74l20.43-75.32,256.27-.16c5.94-22.42,15.13-48.67,19.27-70.89.29-1.54.43-3.04.3-4.59h-255.74l20.43-75.32,256.27-.16Z"/>
  <path class="cls-1" d="M545.66,808.37c.77.79,11.7-5.67,13.53-6.72,11.25-6.44,24.43-16.27,35.76-21.54,1.67-.77,3.23-1.51,5.13-1.02.52,5.24,6.4,8.3,5.6,13.84l-74.7,43.3c-1.31.03-9.08-11.69-7.45-14.22l26.31-68.14-48.47,27.77c-4.83,1.26-7.58-8.47-10.12-11.72l75.83-43.9c2.75.79,6.68,8.44,6.28,11.42l-27.71,70.93Z"/>
  <path class="cls-1" d="M1367.38,323.35l51-30.64,9.08,13.85-76.84,44.75-5.38-12.94,27.72-70.92-52.5,30.66c-2.82.68-1.6-.62-2.26-1.72-1.55-2.58-5.95-8.85-5.23-11.29l75.35-45.62,6.81,13.04-27.74,70.83Z"/>
  <path class="cls-1" d="M1447.03,728.72c-7.08,12.5-11.7,28.2-18.98,40.41-17.85,29.92-55.47,16.1-53.69-16.66l-39.12,6.98,7.24-16.52c10.15-3.13,25.6-2.71,35.08-6.14,4.34-1.57,9.21-14.36,9.36-19.22l-26.52-11.24,6.43-13.91,80.22,36.3ZM1399.64,726.04c-2.77,9.52-12.72,21.16-11.26,31.25,1.23,8.48,9.23,13.08,17.36,11.9,11.67-1.7,15.49-23.18,21.7-31.41l-22.28-11.23-5.52-.51Z"/>
  <path class="cls-1" d="M547.06,323.35l40.52-6.98-7.3,16.46-37.92,7.19-7.89,18.27,26.49,11.26-5.54,15.3-79.63-37.78c-1.71-1.6,17.44-38.66,19.78-42.37,17.36-27.43,56.3-12.87,51.49,18.65ZM521.88,351.3c3.59-12.1,21.14-32.87,5.54-42.57-18.45-11.48-26.02,17.32-32.01,29.16l26.47,13.41Z"/>
  <path class="cls-1" d="M559.61,710.5l-83.82,26.6c-2.97-16.69-14.02-35.12-12.45-52.29,3.95-43.05,61.3-54.79,82.56-17.15,2.59,4.58,15.95,41.06,13.7,42.85ZM501.95,661.92c-2.51.42-5.71,1.98-8.06,3.12-13.5,6.61-17.4,18.83-15,33.29.44,2.65,5.9,18.76,7.49,19.1l51.69-16.6c1.32-.35,2.93-.92,3.32-2.36.59-2.18-3.95-15.29-5.25-18.27-6.5-14.91-17.81-21.07-34.18-18.3Z"/>
  <path class="cls-1" d="M1442.83,338.72c1.91,13.94,11.29,28.86,12.6,42.62,4.9,51.58-64.86,71.44-86.69,16.82-1.52-3.81-11.06-31.76-9.72-32.85l83.82-26.6ZM1434.45,358.28l-57.26,18.23c2.64,12.41,7.66,29.41,19.96,35.16,14.48,6.77,35.38.32,41.56-14.88,5.95-14.65-1.49-24.38-4.26-38.51Z"/>
  <path class="cls-1" d="M806.99,945.38l-37.81,79.59c-1.48.41-2.8-.07-4.18-.56-9.36-3.34-36.37-17.46-42.59-24.51-28.93-32.86.58-81.68,42.96-72.33,14,3.09,27.81,13.35,41.62,17.81ZM785.96,951.02c-12.33-4.18-21.4-11.93-35.26-9.54-20.03,3.45-30.19,30.75-18.41,47.14,5.55,7.73,16.23,12.2,24.82,15.75,1.29.54,2.36,1.74,3.8.5l24.49-49.66.56-4.18Z"/>
  <path class="cls-1" d="M1110.23,133.24l38.41-80.96c15.23,9.21,36.15,13.38,47.43,27.96,24.56,31.77-1.6,76.4-41.47,70.83-15.65-2.19-29.27-13.74-44.37-17.84ZM1154.97,71.74l-23.81,52.46c-.15,1.31.55,1.95,1.42,2.76,1.31,1.22,11.66,6.09,14,6.96,13.66,5.07,27.08,3.94,36.33-8.36,19.36-25.73-3.36-46.94-27.95-53.83Z"/>
  <path class="cls-1" d="M955.12,973.32l-7.15,87.9-65.53-5.44c2.62-2.84-.1-13.37,3.45-13.7l48.27,3.93,1.39-22.37c-6.75-1.25-13.53-.84-20.28-1.38-2.38-.19-4.56-1.26-6.94-1.44-4.08-.32-14.66,1.65-15.91-2.25-.78-2.41-.92-12.42,2.02-13.01l42.51,4.11,1.41-23.78-50.31-4.19,1.4-13.98,65.68,5.6Z"/>
  <polygon class="cls-1" points="1031.98 22.83 1031.98 36.81 981.67 32.61 980.27 56.37 1023.6 59.16 1023.6 73.15 978.87 70.34 977.47 94.11 1027.79 96.9 1027.17 109.57 1024.31 110.89 960.7 106.69 967.85 18.78 1031.98 22.83"/>
  <path class="cls-1" d="M1252.78,862.88c-1.77-1.58,8.96-11.1,10.74-12.41l21.44,6.16,27.59-30.76-9.3-20.81c2.66-1.83,7.46-11.3,10.3-10.67l39.91,87.32-8.48,9.9-92.2-28.74ZM1335.23,874.06c-5.11-11.23-10.07-22.87-16.07-33.52l-18.86,20.26c-.39,2.61.14,1.77,1.76,2.37,10.89,4.04,22.09,7.43,33.17,10.89Z"/>
  <path class="cls-1" d="M670.03,214.33c1.83,1.68-8.7,9.86-9.24,12.68l-22.88-6.48-25.19,26.63-2.16,4.99,8.99,19.99-10.32,10.65-39.61-88.56,10.21-10.25,90.18,30.35ZM623.91,214.33l-34.93-11.19,13.98,33.54c8.07-6.26,13.82-15.07,20.95-22.35Z"/>
  <path class="cls-1" d="M445.03,615.48l57.36-6.23c13.39-4.59,18.07-17.01,13.21-30.09-5.28-14.2-17.65-13.29-30.75-12.62-11.17.58-23.64,3.41-34.89,4.24-3.48.25-7.04-.19-10.51-.02l-1.39-15.38c2.99-.2,6.12.31,9.11.02,18.2-1.8,46.92-8.52,63.54-2.1,26.86,10.38,29.3,57.16,1.81,68.86-9.11,3.88-15.8,3.33-24.88,4.47-13.48,1.69-27.89,4.33-41.28,3.61-2.65-1.76-.78-11.28-1.32-14.77Z"/>
  <path class="cls-1" d="M1473.58,443.55c-.94,3.99,3.79,13.69.09,16.16l-48.18,4.92c-35.26,3.6-28.19,51.26,6.9,44.64l48.19-5.62,1.39,15.36-45.38,5.63c-5.93-.41-12.38.54-18.2,0-36.05-3.36-42.11-62.45-7.04-72.76,20.36-4.81,41.61-4.94,62.25-8.33Z"/>
  <path class="cls-1" d="M454.12,464.54l10.44,9.19c-5.78,8.42-12.72,18.06-10.82,28.91,1.75,10.03,12.33,13.56,18.47,5.13,9.51-13.04,9.58-43.33,33.44-41.8,28.34,1.82,29.99,34.06,19.8,54.51-1.39,2.78-8.35,13.58-10.52,14.69-3.41,1.74-8.65-6.61-11.12-8.62,2.45-5.14,7.02-8.84,9.54-14,5.37-11,7.75-32.98-10.29-29.88-4.29.74-6.74,7.42-8.39,11.19-6.12,14.01-8.72,34.01-28.21,34.48-33.55.81-32.61-46.9-12.33-63.82Z"/>
  <path class="cls-1" d="M1439.07,553.02c8.25-7.84,22.64-7.74,31.64-1.06,15.19,11.27,11.55,40.38.66,53.63-6.82,8.3-7.3.77-14.5-3.51,5.41-10.52,11.15-16.46,9.76-29.28-1.3-11.97-13.25-13.8-19.64-2.79-8.12,13.99-8.65,39.59-31.15,39.41-31.61-.25-30.87-41.7-16.95-60.97l8.29-8.44,9.01,9.25c-4.07,7.78-11.15,14.5-12.38,23.68-1.36,10.13,1.13,23.87,14.33,19.92,8.57-2.57,12.28-31.62,20.94-39.84Z"/>
  <polygon class="cls-1" points="1019.4 1058.58 1018.13 1044.73 1064.57 1035.97 1066.82 1034.02 1062.65 1012.53 1018 1019.45 1016.62 1005.48 1059.93 998.47 1054.26 962.93 1067.51 959.43 1084.99 1045.2 1082.74 1047.15 1019.4 1058.58"/>
  <path class="cls-1" d="M897.69,35.28l-48.79,9.91,4.2,23.76,44.71-8.39,1.47,13.18-43.41,9.2,6.91,34.07c-.86,3.02-12.02,2.96-15.28,3.66l-16.78-86.67,63.49-12.48c2.56.51,4.03,11.03,3.47,13.75Z"/>
  <path class="cls-1" d="M479.98,375.07l-6.97,27.91,71.25,18.22-4.15,14.78-70.48-17.51c-1.18.38-1.55,1.25-1.98,2.3-2.63,6.44-3.84,17.18-5.86,24.19l-13.95-2.83,17.41-68.49c2.14-3.48,10.92,2.04,14.71,1.44Z"/>
  <path class="cls-1" d="M1473.56,633.69l-16.75,69.86-13.96-2.82c-2.24-1.69,5.63-22.13,5.57-25.94-.02-1.27-.23-2.03-1.36-2.73l-69.91-17.45c1.19-2.99,2.41-14.75,5-15.28l69.67,17.99c1.12-.42,1.52-1.24,1.93-2.28,1.42-3.56,4.71-23.24,5.94-24.12l13.87,2.75Z"/>
  <path class="cls-1" d="M1243.7,867.19l53.76,70.5-11.09,8.51-1.46-.07-45.4-58.05-36.36,27.72c-.76-.04-9.85-10.3-7.03-12.43l47.58-36.19Z"/>
  <polygon class="cls-1" points="876.86 964.94 854.41 1050.11 839.12 1047.39 857.39 975.55 814.1 963.41 816.82 949.59 876.86 964.94"/>
  <path class="cls-1" d="M678.44,210.13l-51.17-69.84c-.78-2.99,8.35-7.29,10.09-9.75l4.71,3.44,41.24,55.18,35.17-26.4c2.35-1.92,10.04,8.32,10.21,9.02.74,3.07-44.58,33.98-50.25,38.37Z"/>
  <polygon class="cls-1" points="1076.7 31.21 1058.52 103.88 1103.23 115.11 1100.45 129.06 1042.73 114.81 1040.43 112.83 1061.36 28.44 1076.7 31.21"/>
  <rect class="cls-1" x="1351.39" y="755.61" width="16.11" height="89.1" transform="translate(-54.3 1499.95) rotate(-56.82)"/>
  <rect class="cls-1" x="544.64" y="831.36" width="89.67" height="16.61" transform="translate(-395.74 553.55) rotate(-38.74)"/>
  <rect class="cls-1" x="1283.46" y="228.54" width="89.87" height="16.35" transform="translate(152.49 898.47) rotate(-39.47)"/>
  <rect class="cls-1" x="976.48" y="971.46" width="16.79" height="88.94" transform="translate(-49.49 50.44) rotate(-2.86)"/>
  <rect class="cls-1" x="923" y="19.51" width="16.66" height="89.09" transform="translate(-2.17 56.23) rotate(-3.45)"/>
  <rect class="cls-1" x="555.45" y="231.55" width="15.7" height="88.79" transform="translate(21.74 592.43) rotate(-56.4)"/>
  <path class="cls-1" d="M645.85,886.93c13.35-2.97,25.33,4.33,24.21,18.61-1.41,18.06-26.85,22.37-34.16,6.17-3.92-8.69.12-22.59,9.94-24.77Z"/>
  <ellipse class="cls-1" cx="769.8" cy="102.49" rx="17.92" ry="17.93"/>
  <ellipse class="cls-1" cx="1265.08" cy="173.06" rx="17.91" ry="17.91"/>
  <ellipse class="cls-1" cx="1154.37" cy="975.42" rx="17.92" ry="17.93"/>
</svg>